<svg xmlns="http://www.w3.org/2000/svg" viewBox="0 0 512 512">
  <defs>
    <linearGradient id="grad1" x1="0%" y1="0%" x2="100%" y2="100%">
      <stop offset="0%" style="stop-color:#4A90E2;stop-opacity:1" />
      <stop offset="100%" style="stop-color:#0056b3;stop-opacity:1" />
    </linearGradient>
  </defs>
  <rect width="512" height="512" rx="60" fill="url(#grad1)" />
  
  <!-- Car Icon -->
  <path fill="#ffffff" d="M432,144H397.6c-10.8,0-20.9,5.6-26.8,14.9l-32.2,51.1H173.4l-32.2-51.1c-5.9-9.3-16-14.9-26.8-14.9H80c-26.5,0-48,21.5-48,48v16c0,8.8,7.2,16,16,16h16v160c0,17.7,14.3,32,32,32h32c17.7,0,32-14.3,32-32v-16h192v16c0,17.7,14.3,32,32,32h32c17.7,0,32-14.3,32-32V224h16c8.8,0,16-7.2,16-16v-16C480,165.5,458.5,144,432,144z M128,336c-17.7,0-32-14.3-32-32s14.3-32,32-32s32,14.3,32,32S145.7,336,128,336z M384,336c-17.7,0-32-14.3-32-32s14.3-32,32-32s32,14.3,32,32S401.7,336,384,336z M384,224H128v-32h256V224z"/>
  
  <!-- Dollar Sign Badge -->
  <circle cx="380" cy="120" r="70" fill="#28a745" stroke="#ffffff" stroke-width="8"/>
  <text x="380" y="145" font-family="Arial, sans-serif" font-size="80" font-weight="bold" fill="#ffffff" text-anchor="middle">$</text>
</svg>